<svg id="Capa_1" enable-background="new 0 0 512 512" height="512" viewBox="0 0 512 512" width="512" xmlns="http://www.w3.org/2000/svg"><g><path d="m497 61h-332c-90.981 0-165 74.019-165 165v210c0 8.284 6.716 15 15 15 36.219 0 66.524-25.809 73.493-60h130.424c46.99 0 90.756-26.806 111.499-68.292.546-1.093.95-2.233 1.213-3.396 25.125-11.653 46.197-31.425 58.787-56.604.485-.971.858-1.979 1.12-3.008 24.655-11.342 45.869-30.971 58.88-56.992 2.325-4.65 2.076-10.172-.657-14.594-.885-1.432-1.988-2.681-3.253-3.718 14.184-11.203 25.77-25.408 33.91-41.688 2.325-4.65 2.076-10.172-.657-14.594-.885-1.432-1.988-2.681-3.253-3.718 14.184-11.203 25.77-25.408 33.91-41.688 2.325-4.65 2.076-10.172-.657-14.594-2.732-4.422-7.56-7.114-12.759-7.114zm-127.083 120h-113.917c-8.284 0-15 6.716-15 15s6.716 14.99 15 14.99h152.639c-17.408 18.923-42.057 30.01-68.722 30.01h-113.917c-8.284 0-15 6.716-15 15s6.716 14.99 15 14.99h122.399c-17.631 18.733-42.865 30.01-69.482 30.01h-113.917c-8.284 0-15 6.716-15 15s6.716 14.99 15 14.99h123.399c-17.631 18.733-42.865 30.01-69.482 30.01h-128.917v-135c0-41.355 33.645-75.01 75-75.01h273.639c-17.408 18.923-42.057 30.01-68.722 30.01zm30-60h-234.917c-57.897 0-105 47.103-105 105v150c0 19.556-12.539 36.239-30 42.43v-192.43c0-74.439 60.561-135.01 135-135.01h303.639c-17.408 18.923-42.057 30.01-68.722 30.01z"/></g></svg>