<svg id="Capa_1" enable-background="new 0 0 510.309 510.309" height="512" viewBox="0 0 510.309 510.309" width="512" xmlns="http://www.w3.org/2000/svg"><g><path d="m314.513 260.618 6.13-22.38c4.93-19.62 10.42-59.91 10.42-84.66 0-67.45-23.33-128.44-58.27-152.9-.102 0-16.593-1.152-35.27 0-34.94 24.44-58.28 85.45-58.28 152.9 0 24.74 5.49 65.03 10.42 84.65l6.436 21.728c23.251-50.662 95.75-50.224 118.414.662z"/><path d="m347.8 260.629c-.001.003-.003.011-.009.032.109-.005.018-.014.009-.032z"/><path d="m196.1 259.956h-.057c.028.028.056.058.084.086z"/><path d="m314.513 260.618-.184.576c.167-.194.336-.387.51-.576-.11 0-.214 0-.326 0z"/><path d="m320.693 7.538c25.27 35.88 40.37 88.56 40.37 146.04 0 24.913-13.233 106.453-13.396 107.465 10.359-23.26 33.576-38.895 59.486-38.895 30.731 0 56.811 21.301 63.386 50.604l-182.884 171.382c25.023-76.362 59.545-181.658 60.012-183.09-.112-.127-.222-.255-.336-.38-4.037-4.395-9.829-7.151-16.267-7.151-6.415 0-12.189 2.737-16.223 7.105-.174.188-.343.381-.51.576l-58.997 185.024-59.206-186.175c-.028-.029-.056-.058-.084-.086-3.994-3.981-9.505-6.443-15.59-6.443-6.13 0-11.674 2.499-15.676 6.531-.037.037-.071.076-.108.113l58.745 184.692-183.647-172.098c6.577-29.298 32.657-50.604 63.385-50.604 25.957 0 50.944 14.765 61.516 38.008-1.634-5.922-3.976-14.138-3.976-14.138-4.332-14.47-11.45-63.108-11.45-92.44 0-57.48 15.1-110.16 40.37-146.04-133.664 30.848-218.676 152.589-180.399 274.74.319 1.131.866 2.457 1.64 3.727 1.763 2.883 234.132 220.158 234.234 220.251 5.923 5.357 14.748 5.058 20.323-.163 246.486-230.984 233.762-217.76 235.543-223.365 38.57-121.964-46.135-244.236-180.261-275.19z"/></g></svg>