<?xml version="1.0" encoding="iso-8859-1"?>
<!-- Generator: Adobe Illustrator 19.0.0, SVG Export Plug-In . SVG Version: 6.00 Build 0)  -->
<svg version="1.1" id="Layer_1" xmlns="http://www.w3.org/2000/svg" x="0px" y="0px"
     viewBox="0 0 512 512" style="enable-background:new 0 0 512 512;" xml:space="preserve">
<g>
	<g>
		<path d="M419.168,441.945l-103.72-207.624c-0.001-0.002-0.002-0.005-0.003-0.007L225.759,54.786
			c-6.273-12.556-24.252-12.572-30.534,0L129.66,186.03L1.817,441.945c-5.667,11.345,2.612,24.693,15.267,24.693h386.817
			C416.583,466.638,424.823,453.266,419.168,441.945z M270.03,250.639l-3.381,3.896l-35.703-41.129
			c-6.752-7.78-18.952-7.86-25.773,0l-10.253,11.81l-29.628-34.132l45.201-90.484l69.322,138.767L270.03,250.639z"/>
	</g>
</g>
<g>
	<g>
		<path d="M510.183,441.939L373.341,168.016c-6.277-12.562-24.257-12.564-30.534,0l-11.167,22.351l138.012,276.264h25.264
			C507.571,466.631,515.85,453.283,510.183,441.939z"/>
	</g>
</g>
<g>
</g>
<g>
</g>
<g>
</g>
<g>
</g>
<g>
</g>
<g>
</g>
<g>
</g>
<g>
</g>
<g>
</g>
<g>
</g>
<g>
</g>
<g>
</g>
<g>
</g>
<g>
</g>
<g>
</g>
</svg>
